<svg width="84" height="84" viewBox="0 0 84 84" fill="none" xmlns="http://www.w3.org/2000/svg">
<path d="M48.0409 68.3654C52.1916 60.5439 66.0269 60.5439 66.0269 60.5439C80.4436 60.3936 82.391 51.6409 83.6928 47.217C81.3627 66.0405 66.578 81.0035 47.8393 83.6064C46.4841 80.7544 44.8786 74.3232 48.0409 68.3654Z" fill="#37943C"/>
<path d="M12.6273 16.1037L10.8981 14.625C10.7542 14.5018 10.6165 14.3729 10.4853 14.2386C3.9592 21.6408 0 31.3599 0 42.0036C0 64.9409 18.3866 83.5837 41.2262 84C39.7417 79.5695 38.773 72.389 42.4755 65.413C45.8785 59.0003 52.7252 56.4763 57.0867 55.404C59.4677 54.8189 61.6566 54.5336 63.2378 54.3917C64.0359 54.3203 64.6979 54.2833 65.1759 54.2644C65.4154 54.2552 65.6099 54.2501 65.7535 54.2472L65.9304 54.2447H65.9774C71.7777 54.1808 74.0289 52.4692 75.0677 51.2998C76.3527 49.8532 76.8563 48.1382 77.5578 45.749L77.649 45.4395C78.4812 42.6114 81.1385 40.7825 84 40.9241C83.7362 30.4674 79.6502 20.9599 73.0871 13.7463C72.9543 14.4927 72.7964 15.1867 72.6384 15.801C71.926 18.5799 70.7301 21.5779 69.2624 23.8051C67.8261 25.9847 65.2751 27.9322 63.5793 29.1506C62.2993 30.0701 60.9912 30.8339 59.9133 31.4551L59.5265 31.6778C58.5532 32.2376 57.7794 32.6836 57.0426 33.1702C55.5472 34.1581 54.6503 35.0356 54.0425 36.2243C54.4121 37.5781 54.6747 39.1339 54.6789 40.7607C54.689 44.6313 52.7075 47.6896 50.3392 49.5982C48.0091 51.4758 44.9942 52.5372 41.9395 52.504C29.5482 52.3688 22.2802 42.2611 21.3444 31.8454C21.0723 28.817 19.7098 25.5538 17.8058 22.5134C15.9542 19.5565 13.8612 17.2414 12.6273 16.1037Z" fill="#1DBAD6"/>
<path d="M27.6201 31.2816C26.8334 22.5272 20.0818 14.3696 16.8042 11.3852L14.9937 9.8368C22.2969 3.6979 31.7207 0 42.0085 0C51.3058 0 59.8983 3.0205 66.8571 8.1337C67.8401 11.1181 65.9674 17.3541 64.0011 20.3386C63.2887 21.4196 61.6735 22.7616 59.9025 24.0339C55.9098 26.9023 50.8709 28.3211 48.3094 33.6029C47.5768 35.1129 47.6083 36.5885 47.9604 37.8717C48.2136 38.7937 48.3754 39.7963 48.3779 40.7771C48.3863 43.9479 45.1791 46.2384 42.0085 46.2039C33.7571 46.114 28.3553 39.4645 27.6201 31.2816Z" fill="#37943C"/>
</svg>
