<svg width="120" height="60" viewBox="0 0 120 60" fill="none" xmlns="http://www.w3.org/2000/svg">
<path d="M120 15C120 6.71573 113.284 0 105 0H15C6.7157 0 0 6.71573 0 15V35C0 43.2843 6.7157 50 15 50H105L120 60V50V35V15Z" fill="#F1F1F1" fill-opacity="0.8"/>
<path d="M36.56 18.64H38.256L42.672 30H40.784L39.584 26.912H35.2L34.016 30H32.112L36.56 18.64ZM39.232 25.584L37.408 20.608L35.52 25.584H39.232ZM43.8529 30V21.632H45.6129V24.96H49.5009V21.632H51.2609V30H49.5009V26.48H45.6129V30H43.8529ZM52.7761 27.552C52.7761 27.0187 52.9255 26.5547 53.2241 26.16C53.5335 25.7547 53.9548 25.4453 54.4881 25.232C55.0215 25.008 55.6401 24.896 56.3441 24.896C56.7175 24.896 57.0961 24.9227 57.4801 24.976C57.8748 25.0293 58.2215 25.1147 58.5201 25.232V24.704C58.5201 24.1173 58.3441 23.6587 57.9921 23.328C57.6401 22.9973 57.1335 22.832 56.4721 22.832C56.0028 22.832 55.5601 22.9173 55.1441 23.088C54.7281 23.248 54.2855 23.4773 53.8161 23.776L53.2241 22.592C53.7788 22.2187 54.3335 21.9413 54.8881 21.76C55.4535 21.5787 56.0455 21.488 56.6641 21.488C57.7841 21.488 58.6641 21.7867 59.3041 22.384C59.9548 22.9707 60.2801 23.808 60.2801 24.896V28.016C60.2801 28.2187 60.3121 28.3627 60.3761 28.448C60.4508 28.5333 60.5735 28.5813 60.7441 28.592V30C60.5841 30.032 60.4401 30.0533 60.3121 30.064C60.1841 30.0747 60.0775 30.08 59.9921 30.08C59.6188 30.08 59.3361 29.9893 59.1441 29.808C58.9521 29.6267 58.8401 29.4133 58.8081 29.168L58.7601 28.688C58.3975 29.1573 57.9335 29.52 57.3681 29.776C56.8028 30.032 56.2321 30.16 55.6561 30.16C55.1015 30.16 54.6055 30.048 54.1681 29.824C53.7308 29.5893 53.3895 29.2747 53.1441 28.88C52.8988 28.4853 52.7761 28.0427 52.7761 27.552ZM58.1041 28.064C58.2321 27.9253 58.3335 27.7867 58.4081 27.648C58.4828 27.5093 58.5201 27.3867 58.5201 27.28V26.32C58.2215 26.2027 57.9068 26.1173 57.5761 26.064C57.2455 26 56.9201 25.968 56.6001 25.968C55.9601 25.968 55.4375 26.096 55.0321 26.352C54.6375 26.608 54.4401 26.96 54.4401 27.408C54.4401 27.6533 54.5041 27.888 54.6321 28.112C54.7708 28.336 54.9628 28.5173 55.2081 28.656C55.4641 28.7947 55.7788 28.864 56.1521 28.864C56.5361 28.864 56.9041 28.7893 57.2561 28.64C57.6081 28.4907 57.8908 28.2987 58.1041 28.064ZM61.7434 30.08V28.512C62.01 28.512 62.25 28.448 62.4634 28.32C62.6767 28.1813 62.8634 27.9573 63.0234 27.648C63.1834 27.328 63.3114 26.8853 63.4074 26.32C63.5034 25.7547 63.5674 25.0347 63.5994 24.16L63.7114 21.632H69.6794V30H67.9194V23.184H65.2634L65.2314 24.32C65.1887 25.44 65.0874 26.3733 64.9274 27.12C64.7674 27.856 64.5434 28.4427 64.2554 28.88C63.978 29.3067 63.626 29.616 63.1994 29.808C62.7834 29.9893 62.298 30.08 61.7434 30.08ZM71.7904 30V21.648H73.5504V27.648L77.7904 21.632H79.3904V30H77.6304V24.128L73.4384 30H71.7904ZM84.2935 30.128C83.4402 30.128 82.7202 29.9733 82.1335 29.664C81.5575 29.344 81.1148 28.9067 80.8055 28.352L82.2295 27.712C82.4108 28.0213 82.6668 28.2667 82.9975 28.448C83.3282 28.6187 83.7282 28.704 84.1975 28.704C84.7628 28.704 85.2002 28.5867 85.5095 28.352C85.8188 28.1173 85.9735 27.808 85.9735 27.424C85.9735 27.072 85.8455 26.7893 85.5895 26.576C85.3335 26.352 84.9708 26.2347 84.5015 26.224H83.6375V25.104H84.5335C84.7468 25.104 84.9335 25.056 85.0935 24.96C85.2535 24.864 85.3762 24.736 85.4615 24.576C85.5575 24.4053 85.6055 24.2133 85.6055 24C85.6055 23.68 85.4828 23.424 85.2375 23.232C85.0028 23.0293 84.6455 22.928 84.1655 22.928C83.7495 22.928 83.4082 23.008 83.1415 23.168C82.8748 23.3173 82.6562 23.5413 82.4855 23.84L81.1575 23.136C81.4348 22.624 81.8402 22.224 82.3735 21.936C82.9068 21.648 83.5308 21.504 84.2455 21.504C84.8108 21.504 85.3122 21.5947 85.7495 21.776C86.1975 21.9467 86.5442 22.2027 86.7895 22.544C87.0455 22.8747 87.1735 23.2853 87.1735 23.776C87.1735 24.16 87.0828 24.5227 86.9015 24.864C86.7202 25.1947 86.4375 25.44 86.0535 25.6C86.5655 25.7493 86.9495 26.0107 87.2055 26.384C87.4722 26.7467 87.6055 27.1787 87.6055 27.68C87.6055 28.192 87.4615 28.6347 87.1735 29.008C86.8962 29.3707 86.5068 29.648 86.0055 29.84C85.5042 30.032 84.9335 30.128 84.2935 30.128Z" fill="url(#paint0_linear_2_249)"/>
<defs>
<linearGradient id="paint0_linear_2_249" x1="32" y1="34" x2="90.441" y2="26.9565" gradientUnits="userSpaceOnUse">
<stop stop-color="#37943C"/>
<stop offset="1" stop-color="#1DBAD6"/>
</linearGradient>
</defs>
</svg>
