<svg width="140" height="60" viewBox="0 0 140 60" fill="none" xmlns="http://www.w3.org/2000/svg">
<path d="M122.5 1H17.5C8.23744 1 1 7.40709 1 15V58.2764L17.0039 49.1318L17.2344 49H122.5C131.763 49 139 42.593 139 35V15C139 7.40708 131.763 1 122.5 1Z" fill="white" stroke="url(#paint0_linear_247_1428)" stroke-width="2"/>
<path d="M25.6842 32.176V28.416H26.2283C26.5269 28.416 26.7829 28.2987 26.9963 28.064C27.2203 27.8293 27.4069 27.456 27.5563 26.944C27.7163 26.432 27.8389 25.76 27.9243 24.928C28.0203 24.0853 28.0896 23.056 28.1323 21.84L28.2123 18.64H35.5243V28.416H36.9643V32.176H35.3803V30H27.2682V32.176H25.6842ZM28.5003 28.416H33.7163V20.224H29.8763L29.8283 22.08C29.7963 23.3067 29.7323 24.3467 29.6363 25.2C29.5403 26.0427 29.4016 26.7253 29.2203 27.248C29.0389 27.7707 28.7989 28.16 28.5003 28.416ZM37.8996 30.08V28.512C38.1663 28.512 38.4063 28.448 38.6196 28.32C38.833 28.1813 39.0196 27.9573 39.1796 27.648C39.3396 27.328 39.4676 26.8853 39.5636 26.32C39.6596 25.7547 39.7236 25.0347 39.7556 24.16L39.8676 21.632H45.8356V30H44.0756V23.184H41.4196L41.3876 24.32C41.345 25.44 41.2436 26.3733 41.0836 27.12C40.9236 27.856 40.6996 28.4427 40.4116 28.88C40.1343 29.3067 39.7823 29.616 39.3556 29.808C38.9396 29.9893 38.4543 30.08 37.8996 30.08ZM47.4186 30L49.6586 26.688C49.136 26.56 48.72 26.2933 48.4106 25.888C48.1013 25.4827 47.9466 24.9387 47.9466 24.256C47.9466 23.7333 48.064 23.2747 48.2986 22.88C48.544 22.4853 48.8853 22.176 49.3226 21.952C49.76 21.728 50.2666 21.616 50.8426 21.616H54.5226V30H52.7626V26.976H51.3866L49.3386 30H47.4186ZM51.0186 25.696H52.7626V22.976H51.1306C50.6826 22.976 50.3253 23.0987 50.0586 23.344C49.8026 23.5893 49.6746 23.9093 49.6746 24.304C49.6746 24.6987 49.7866 25.0293 50.0106 25.296C50.2453 25.5627 50.5813 25.696 51.0186 25.696ZM60.6029 30V21.632H67.8029V30H66.0429V23.184H62.3629V30H60.6029ZM73.691 30.16C73.0297 30.16 72.4377 30.048 71.915 29.824C71.3923 29.5893 70.939 29.2693 70.555 28.864C70.1817 28.4587 69.8937 28 69.691 27.488C69.4883 26.9653 69.387 26.4107 69.387 25.824C69.387 25.2373 69.4883 24.6827 69.691 24.16C69.8937 23.6373 70.1817 23.1787 70.555 22.784C70.939 22.3787 71.3923 22.064 71.915 21.84C72.4483 21.6053 73.0403 21.488 73.691 21.488C74.3417 21.488 74.9283 21.6053 75.451 21.84C75.9843 22.064 76.4377 22.3787 76.811 22.784C77.195 23.1787 77.4883 23.6373 77.691 24.16C77.8937 24.6827 77.995 25.2373 77.995 25.824C77.995 26.4107 77.8937 26.9653 77.691 27.488C77.4883 28 77.195 28.4587 76.811 28.864C76.4377 29.2693 75.9843 29.5893 75.451 29.824C74.9283 30.048 74.3417 30.16 73.691 30.16ZM71.195 25.84C71.195 26.3733 71.307 26.8533 71.531 27.28C71.755 27.7067 72.0537 28.0427 72.427 28.288C72.8003 28.5333 73.2217 28.656 73.691 28.656C74.1497 28.656 74.5657 28.5333 74.939 28.288C75.323 28.032 75.627 27.6907 75.851 27.264C76.075 26.8267 76.187 26.3467 76.187 25.824C76.187 25.2907 76.075 24.8107 75.851 24.384C75.627 23.9573 75.323 23.6213 74.939 23.376C74.5657 23.12 74.1497 22.992 73.691 22.992C73.2217 22.992 72.8003 23.12 72.427 23.376C72.0537 23.632 71.755 23.9733 71.531 24.4C71.307 24.816 71.195 25.296 71.195 25.84ZM84.26 30V26.816C83.94 26.9653 83.6093 27.0773 83.268 27.152C82.9267 27.216 82.5427 27.248 82.116 27.248C81.22 27.248 80.5267 27.0133 80.036 26.544C79.556 26.064 79.316 25.3547 79.316 24.416V21.632H81.076V24.192C81.076 24.7787 81.1987 25.2107 81.444 25.488C81.6893 25.7547 82.084 25.888 82.628 25.888C82.9267 25.888 83.2253 25.856 83.524 25.792C83.8227 25.728 84.068 25.6427 84.26 25.536V21.632H86.036V30H84.26ZM88.1654 30V21.632H92.6454C93.1787 21.632 93.616 21.7333 93.9574 21.936C94.3094 22.128 94.5707 22.3787 94.7414 22.688C94.912 22.9867 94.9974 23.3173 94.9974 23.68C94.9974 24.1387 94.8907 24.544 94.6774 24.896C94.464 25.248 94.1494 25.5147 93.7334 25.696C94.2134 25.8347 94.6027 26.08 94.9014 26.432C95.2107 26.7733 95.3654 27.216 95.3654 27.76C95.3654 28.2507 95.248 28.6667 95.0134 29.008C94.7787 29.3387 94.4427 29.5893 94.0054 29.76C93.5787 29.92 93.0774 30 92.5014 30H88.1654ZM89.8294 28.784H92.4534C92.6774 28.784 92.88 28.7307 93.0614 28.624C93.2534 28.5067 93.4027 28.3573 93.5094 28.176C93.616 27.984 93.6694 27.7813 93.6694 27.568C93.6694 27.3333 93.616 27.1253 93.5094 26.944C93.4134 26.7627 93.2747 26.6187 93.0934 26.512C92.9227 26.4053 92.72 26.352 92.4854 26.352H89.8294V28.784ZM89.8294 25.216H92.1974C92.4214 25.216 92.6187 25.1627 92.7894 25.056C92.96 24.9387 93.0934 24.784 93.1894 24.592C93.2854 24.4 93.3334 24.1973 93.3334 23.984C93.3334 23.6747 93.232 23.408 93.0294 23.184C92.8267 22.96 92.56 22.848 92.2294 22.848H89.8294V25.216ZM97.0404 30V21.632H98.8004V24.384H100.384C101.376 24.384 102.134 24.6347 102.656 25.136C103.179 25.6373 103.44 26.2987 103.44 27.12C103.44 27.6747 103.328 28.1707 103.104 28.608C102.88 29.0453 102.55 29.3867 102.112 29.632C101.686 29.8773 101.152 30 100.512 30H97.0404ZM98.8004 28.64H100.24C100.592 28.64 100.875 28.576 101.088 28.448C101.302 28.3093 101.456 28.128 101.552 27.904C101.659 27.6693 101.712 27.4187 101.712 27.152C101.712 26.8853 101.664 26.6453 101.568 26.432C101.472 26.208 101.312 26.032 101.088 25.904C100.875 25.7653 100.587 25.696 100.224 25.696H98.8004V28.64ZM104.816 30V21.648H106.576V30H104.816Z" fill="url(#paint1_linear_247_1428)"/>
<defs>
<linearGradient id="paint0_linear_247_1428" x1="140" y1="60" x2="-4.35594" y2="46.468" gradientUnits="userSpaceOnUse">
<stop stop-color="#37943C"/>
<stop offset="1" stop-color="#1DBAD6"/>
</linearGradient>
<linearGradient id="paint1_linear_247_1428" x1="25.1562" y1="34" x2="116.229" y2="16.5184" gradientUnits="userSpaceOnUse">
<stop stop-color="#37943C"/>
<stop offset="1" stop-color="#1DBAD6"/>
</linearGradient>
</defs>
</svg>
