<svg width="24" height="24" viewBox="0 0 24 24" fill="none" xmlns="http://www.w3.org/2000/svg">
<path d="M23.8644 6.48529C23.7242 6.28096 23.4958 6.15867 23.2523 6.15867H7.25505L6.04374 1.87074C5.56886 0.181889 4.44047 0 3.97765 0H0.748495C0.334674 0 0 0.344427 0 0.768576C0 1.19272 0.335428 1.53715 0.748495 1.53715H3.9769C4.07941 1.53715 4.39072 1.53715 4.60328 2.29102L8.76937 18.0116C8.85983 18.3429 9.15455 18.572 9.48998 18.572H19.6651C19.981 18.572 20.2629 18.3692 20.3692 18.0635L23.9556 7.18653C24.0385 6.95124 24.0038 6.68885 23.8636 6.48452L23.8644 6.48529ZM17.6541 20.13C16.6131 20.13 15.7696 20.9961 15.7696 22.065C15.7696 23.1339 16.6131 24 17.6541 24C18.695 24 19.5385 23.1339 19.5385 22.065C19.5385 20.9961 18.695 20.13 17.6541 20.13ZM10.8701 20.13C9.82918 20.13 8.98571 20.9961 8.98571 22.065C8.98571 23.1339 9.82918 24 10.8701 24C11.9111 24 12.7546 23.1339 12.7546 22.065C12.7546 20.9961 11.9111 20.13 10.8701 20.13Z" fill="#262626"/>
</svg>
